<?xml version="1.0" encoding="utf-8"?>
<!-- Generator: Adobe Illustrator 19.2.1, SVG Export Plug-In . SVG Version: 6.00 Build 0)  -->
<svg version="1.1" id="Layer_1" xmlns="http://www.w3.org/2000/svg" xmlns:xlink="http://www.w3.org/1999/xlink" x="0px" y="0px"
	 viewBox="0 0 134.066 150" style="enable-background:new 0 0 134.066 150;" xml:space="preserve">
<style type="text/css">
	.st0{display:none;fill:none;stroke:#FFFFFF;stroke-width:2;stroke-linecap:round;stroke-miterlimit:10;}
	.st1{fill:#5CDBA9;}
	.st2{fill:#5CDBFF;}
	.st3{fill:#42C18E;}
	.st4{fill:#4DC0FF;}
	.st5{fill:#459571;}
	.st6{fill:#457BA4;}
	.st7{fill:#1A9DED;}
	.st8{fill:#1A71ED;}
	.st9{fill:#58595B;}
	.st10{fill:#F9D35B;}
	.st11{fill:#414042;}
	.st12{opacity:0.4;fill:#414042;}
	.st13{fill:#EDDABB;}
	.st14{fill:#DECDB1;}
	.st15{fill:#F8E7D1;}
	.st16{fill:#C4DFED;}
	.st17{fill:#DEF8FF;}
	.st18{fill:#D1F1FF;}
	.st19{fill:#585963;}
	.st20{fill:#FF868A;}
	.st21{fill:#FF9296;}
	.st22{fill:#EC8287;}
	.st23{fill:#272D38;}
	.st24{fill:#F2F2F2;}
	.st25{fill:#59D6D6;}
	.st26{fill:#56C681;}
	.st27{clip-path:url(#SVGID_2_);fill:#E6E6E6;}
	.st28{fill:#54CBCB;}
	.st29{fill:#52BC7A;}
	.st30{fill:#FFD900;}
	.st31{fill:#FFDE00;}
	.st32{fill:#FFA400;}
	.st33{fill:#47413A;}
	.st34{fill:#FFD16A;}
	.st35{fill:#FF888A;}
	.st36{fill:#E1E2E3;}
	.st37{fill:#45AEFF;}
	.st38{fill:#FFC749;}
	.st39{fill:#FF6A71;}
	.st40{fill:#B7B9BB;}
	.st41{fill:#4585FF;}
	.st42{fill:#52597A;}
	.st43{fill:#699BFF;}
	.st44{fill:#64428F;}
	.st45{fill:#FFFFFF;}
	.st46{fill:#5C8BFF;}
	.st47{fill:#D9D9D9;}
	.st48{fill:#49A86E;}
	.st49{fill:#F020D4;}
	.st50{fill:#B363E7;}
	.st51{fill:#FFD684;}
	.st52{fill:#D420C1;}
	.st53{fill:#FFB876;}
	.st54{fill:#A14DD8;}
	.st55{fill:#8248AA;}
	.st56{fill:#77675D;}
	.st57{fill:#C7AB91;}
	.st58{fill:#B59D84;}
	.st59{fill:#675A51;}
	.st60{fill:#9E8774;}
	.st61{fill:#D4B699;}
	.st62{fill:#554650;}
	.st63{fill:#A47C50;}
	.st64{fill:#BDB096;}
	.st65{fill:#BF956C;}
	.st66{fill:#594A42;}
	.st67{fill:#7C37A3;}
	.st68{fill:#733789;}
	.st69{fill:#94C969;}
	.st70{fill:#70B339;}
	.st71{fill:#AF4FE4;}
	.st72{fill:#CCCECF;}
	.st73{fill:#39C24A;}
	.st74{fill:#4EE94A;}
	.st75{fill:#ECEDED;}
	.st76{fill:#559055;}
	.st77{fill:#C766E5;}
	.st78{fill:#AC33D0;}
	.st79{fill:#E4E5E5;}
	.st80{fill:#F6AB40;}
	.st81{fill:#754C29;}
	.st82{fill:#A2A4A7;}
	.st83{opacity:0.3;fill:#FFFFFF;}
	.st84{fill:#755941;}
	.st85{fill:#5AF1FF;}
	.st86{fill:#91FFFF;}
	.st87{fill:#DFB48C;}
	.st88{fill:#537C6B;}
	.st89{fill:#FFD349;}
	.st90{fill:#FFDF71;}
	.st91{fill:#FFE98C;}
	.st92{fill:#D56A5C;}
	.st93{fill:#A4815D;}
	.st94{fill:#B2594E;}
	.st95{fill:#FFD713;}
	.st96{fill:#ECEDDE;}
	.st97{fill:#DFDCCA;}
	.st98{fill:#F0EDDE;}
	.st99{fill:#6D6E71;}
	.st100{fill:#656669;}
	.st101{fill:#E75C54;}
	.st102{fill:#FFA34D;}
	.st103{fill:#56A86C;}
	.st104{fill:#56B2F4;}
	.st105{fill:#FFD569;}
	.st106{fill:#9773C0;}
	.st107{fill:#8E9093;}
	.st108{fill:#EEEFF0;}
	.st109{fill:#A2F1FF;}
	.st110{fill:#C3F6FF;}
	.st111{fill:#FFD458;}
	.st112{fill:#5CE079;}
	.st113{fill:#FFC658;}
	.st114{fill:#5CC862;}
	.st115{fill:#E6BA72;}
	.st116{fill:#FFA88B;}
	.st117{fill:#CC9E64;}
	.st118{fill:#E6CB83;}
	.st119{fill:#FFDC56;}
	.st120{fill:#F6987E;}
	.st121{fill:#FFB192;}
	.st122{fill:#FFCE49;}
	.st123{fill:#FFE96D;}
	.st124{fill:#FE44F5;}
	.st125{fill:#E82AE8;}
	.st126{fill:#CB00D4;}
	.st127{fill:#F6AB2B;}
	.st128{fill:#C07C2E;}
	.st129{fill:#F2951D;}
	.st130{fill:#BD6C1F;}
	.st131{fill:#BD4D45;}
	.st132{fill:#D5940E;}
	.st133{fill:#F6B622;}
	.st134{fill:#856A35;}
	.st135{fill:#3892C6;}
	.st136{fill:#E5E6E7;}
	.st137{fill:#88AB43;}
	.st138{fill:#9BBB3F;}
	.st139{fill:#6E9743;}
	.st140{fill:#C7DC9B;}
	.st141{fill:#7BA039;}
	.st142{fill:#8DAF36;}
	.st143{fill:#648D39;}
	.st144{fill:#616265;}
	.st145{fill:#808080;}
	.st146{fill:#865E3C;}
	.st147{fill:#8A623F;}
	.st148{fill:#3F2E27;}
</style>
<g>
	<path class="st107" d="M71.343,12.31c15.85,15.85,15.53,41.85-0.7,58.08c-0.04,0.04-0.07,0.07-0.11,0.11
		c-16.24,16.12-42.16,16.4-57.97,0.59c-15.84-15.84-15.52-41.84,0.71-58.07S55.503-3.53,71.343,12.31z M64.963,64.71
		c13.02-13.02,13.28-33.87,0.57-46.58s-33.57-12.45-46.59,0.56c-13.01,13.02-13.27,33.88-0.56,46.59S51.943,77.73,64.963,64.71z"/>
	<g>
		<path class="st145" d="M13.273,23.249c2.012-2.012,4.176-3.779,6.451-5.302C32.339,6.101,51.698,5.686,64.233,16.904
			c2.528,1.573,4.919,3.444,7.11,5.635c6.505,6.506,10.281,14.722,11.357,23.27c1.488-12.001-2.274-24.416-11.357-33.499
			c-15.84-15.84-41.84-15.52-58.07,0.71C3.703,22.59-0.33,35.556,1.215,47.834C2.323,38.893,6.342,30.18,13.273,23.249z"/>
	</g>
	<path class="st63" d="M133.033,126.5c0,0.62-0.09,1.23-0.25,1.8c-0.34,0.97-0.92,1.9-1.72,2.7c-0.86,0.86-1.85,1.45-2.88,1.78
		c-0.53,0.15-1.08,0.22-1.65,0.22c-1.56,0-2.98-0.55-4.1-1.45l-0.96-0.96c-0.9-1.12-1.44-2.54-1.44-4.09c0-3.59,2.91-6.5,6.5-6.5
		S133.033,122.91,133.033,126.5z"/>
	<path class="st146" d="M79.873,79.84l3.26-3.26c0.78-0.79,2.05-0.79,2.83,0l45.76,45.88c1.48,1.49,1.82,3.75,1.06,5.84
		c0.16-0.57,0.25-1.18,0.25-1.8c0-3.59-2.91-6.5-6.5-6.5s-6.5,2.91-6.5,6.5c0,1.55,0.54,2.97,1.44,4.09l-44.7-44.81
		c-0.77-0.78-0.77-2.05,0-2.83L79.873,79.84z"/>
	<g>
		<path class="st81" d="M131.263,121.998l-45.3-45.418c-0.78-0.79-2.05-0.79-2.83,0l-1.976,1.976
			c0.234,0.099,0.453,0.242,0.643,0.435l41.668,41.778c0.913-0.489,1.956-0.768,3.064-0.768c1.842,0,3.506,0.766,4.688,1.998"/>
		<path class="st81" d="M131.723,122.46l-0.46-0.462"/>
	</g>
	<path class="st147" d="M131.063,126c-0.86,0.86-1.85,1.45-2.88,1.78c-0.53,0.15-1.08,0.22-1.65,0.22c-1.56,0-2.98-0.55-4.1-1.45
		l-0.96-0.96c-0.388-0.483-0.693-1.03-0.933-1.611c-0.326,0.775-0.507,1.627-0.507,2.521c0,1.55,0.54,2.97,1.44,4.09l0.96,0.96
		c1.12,0.9,2.54,1.45,4.1,1.45c0.57,0,1.12-0.07,1.65-0.22c1.03-0.33,2.02-0.92,2.88-1.78c0.8-0.8,1.38-1.73,1.72-2.7
		c0.16-0.57,0.25-1.18,0.25-1.8c0-0.906-0.186-1.767-0.521-2.551C132.166,124.683,131.682,125.381,131.063,126z"/>
	<path class="st36" d="M65.533,18.13c12.71,12.71,12.45,33.56-0.57,46.58s-33.87,13.28-46.58,0.57s-12.45-33.57,0.56-46.59
		C31.963,5.68,52.823,5.42,65.533,18.13z"/>
	<path class="st72" d="M27.077,31.927c12.929-12.919,33.586-13.259,46.319-0.817c-1.497-4.762-4.11-9.227-7.863-12.98
		c-12.71-12.71-33.57-12.45-46.59,0.56c-13.01,13.02-13.27,33.88-0.56,46.59c0.089,0.089,0.182,0.17,0.271,0.258
		C15.081,54.171,17.908,41.103,27.077,31.927z"/>
	<g>
		<path class="st148" d="M133.752,128.541c0.868-2.493,0.371-5.084-1.321-6.786L86.674,75.878c-0.565-0.574-1.321-0.891-2.126-0.891
			c0,0,0,0-0.001,0c-0.805,0-1.56,0.316-2.122,0.886l-2.553,2.553l-7.94-7.94c7.664-7.96,11.957-18.315,12.09-29.266
			c0.136-11.242-4.116-21.76-11.974-29.617C64.197,3.75,53.66-0.515,42.442-0.361c-11.23,0.137-21.841,4.638-29.876,12.674
			c-16.596,16.595-16.914,43.28-0.71,59.484c7.97,7.97,18.491,11.942,29.103,11.941c10.583-0.001,21.247-3.966,29.554-11.845
			l7.947,7.948l-2.398,2.405c-1.153,1.169-1.153,3.069,0.004,4.239l44.7,44.81c0.288,0.339,0.604,0.654,0.947,0.946l0.115,0.115
			c1.13,1.131,2.685,1.753,4.377,1.753c0.728,0,1.461-0.124,2.173-0.35c0.018-0.005,0.039-0.007,0.057-0.012
			c0.01-0.003,0.02-0.007,0.031-0.01c0.009-0.003,0.017-0.004,0.026-0.006c0.012-0.004,0.023-0.01,0.035-0.014
			c2.466-0.67,4.433-2.582,5.182-5.037c0.005-0.013,0.012-0.026,0.017-0.039c0.004-0.011,0.006-0.022,0.01-0.034
			c0.004-0.013,0.01-0.025,0.014-0.038C133.749,128.561,133.749,128.551,133.752,128.541z M130.356,130.293
			c-0.717,0.716-1.543,1.229-2.466,1.529c-0.427,0.119-0.872,0.178-1.357,0.178c-1.264,0-2.457-0.421-3.443-1.208l-0.861-0.864
			c-0.781-0.986-1.196-2.17-1.196-3.429c0-3.032,2.468-5.5,5.5-5.5s5.5,2.468,5.5,5.5c0,0.503-0.071,1.009-0.206,1.498
			C131.529,128.833,131.022,129.626,130.356,130.293z M13.27,70.383C-2.155,54.958-1.835,29.542,13.98,13.727
			C21.644,6.063,31.76,1.77,42.466,1.639c0.168-0.002,0.336-0.003,0.504-0.003c10.506,0,20.314,4.031,27.665,11.381
			c7.473,7.473,11.518,17.48,11.388,28.178c-0.13,10.706-4.423,20.823-12.087,28.488l0.022,0.022
			c-0.042,0.03-0.091,0.048-0.129,0.086l0,0c0,0.001-0.001,0.001-0.002,0.002c0,0-0.001,0-0.001,0.001c0,0,0,0.001,0,0.001
			C54.009,85.487,28.64,85.754,13.27,70.383z M77.481,83.656l3.1-3.109l3.264-3.264c0.188-0.19,0.438-0.295,0.703-0.295h0.001
			c0.265,0,0.515,0.104,0.706,0.299l41.623,41.731c-0.115-0.005-0.229-0.017-0.345-0.017c-4.136,0-7.5,3.364-7.5,7.5
			c0,0.083,0.018,0.163,0.021,0.246l-41.569-41.67C77.096,84.684,77.096,84.045,77.481,83.656z"/>
		<path class="st148" d="M28.45,21.664c-1.305,0.891-2.534,1.909-3.654,3.028c-6.42,6.411-8.828,15.813-6.282,24.538
			c0.127,0.437,0.526,0.72,0.96,0.72c0.092,0,0.187-0.013,0.28-0.041c0.53-0.155,0.834-0.71,0.68-1.24
			c-2.341-8.022-0.128-16.668,5.776-22.562c1.032-1.032,2.165-1.971,3.367-2.791c0.456-0.312,0.574-0.934,0.263-1.39
			C29.528,21.47,28.905,21.353,28.45,21.664z"/>
		<path class="st148" d="M22.261,53.142c-0.264-0.485-0.872-0.665-1.356-0.401c-0.485,0.264-0.665,0.871-0.401,1.356
			c1.134,2.084,2.557,3.994,4.23,5.678c0.195,0.197,0.452,0.295,0.709,0.295c0.255,0,0.51-0.097,0.705-0.291
			c0.392-0.389,0.394-1.022,0.004-1.414C24.613,56.817,23.303,55.059,22.261,53.142z"/>
		<path class="st148" d="M75.896,41.316c0.112-9.069-3.317-17.554-9.656-23.893C53.166,4.347,31.629,4.598,18.236,17.983
			C4.851,31.377,4.6,52.912,17.675,65.987c6.437,6.436,14.919,9.642,23.473,9.642c8.823-0.001,17.724-3.414,24.521-10.212
			C72.153,58.934,75.785,50.374,75.896,41.316z M19.09,64.573C6.794,52.277,7.046,32.012,19.65,19.397
			c6.41-6.406,14.795-9.621,23.106-9.621c8.045,0,16.021,3.013,22.069,9.061c5.954,5.955,9.176,13.929,9.071,22.454
			c-0.105,8.534-3.529,16.6-9.642,22.711C51.647,76.612,31.385,76.868,19.09,64.573z"/>
	</g>
</g>
</svg>
